<svg width="133" height="20" viewBox="0 0 133 20" fill="none" xmlns="http://www.w3.org/2000/svg">
<path d="M3.93853 9.99974C3.93853 13.0747 6.25242 15.6246 9.1817 15.9746V19.9995C4.06161 19.6495 0 15.2996 0 9.99974C0 4.49988 4.43085 0 9.84632 0H18.7819L10.511 8.39978V3.9999H9.84632C6.59704 3.9999 3.93853 6.69983 3.93853 9.99974Z" fill="url(#paint0_linear)"/>
<path d="M13.5395 14.6992L16.3457 17.5491C14.7703 18.9491 12.7271 19.8491 10.5117 19.9991V15.9742C11.644 15.8492 12.7025 15.3992 13.5395 14.6992Z" fill="url(#paint1_linear)"/>
<path d="M19.6912 10.6758C19.5435 12.9257 18.6573 15.0007 17.2789 16.6006L14.4727 13.7507C15.1619 12.8757 15.605 11.8258 15.7281 10.6758H19.6912Z" fill="url(#paint2_linear)"/>
<path d="M15.5804 8.55065C15.6542 8.80064 15.7034 9.07563 15.7281 9.35063H19.6912C19.642 8.75064 19.5681 8.17566 19.4204 7.60067C19.1989 6.6507 18.805 5.72572 18.3127 4.87574C18.0173 4.37576 17.6727 3.87577 17.2789 3.42578L14.4727 6.27571C14.645 6.4757 14.7927 6.7007 14.9157 6.92569C15.2357 7.42568 15.4573 7.97566 15.5804 8.55065Z" fill="url(#paint3_linear)"/>
<path d="M44.5978 4.84924L45.9834 5.44803L42.9469 12.4239L39.7336 5.44803L41.0602 4.84924L36.0781 3.5918L41.7972 16.0166H44.1261L49.5799 3.5918L44.5978 4.84924Z" fill="#00A6D7"/>
<path d="M33.6299 4.19056C32.7455 3.74147 31.8021 3.50195 30.8293 3.50195C27.4391 3.50195 24.668 6.31624 24.668 9.75925C24.668 9.99877 24.668 10.2383 24.6974 10.4479C24.8154 11.4059 25.1396 12.364 25.6703 13.1723C26.82 14.9387 28.7362 15.9866 30.8293 15.9866C33.9247 15.9866 36.5189 13.6813 36.9316 10.5676H34.3669C33.9836 12.2143 32.5391 13.4118 30.8588 13.4118C30.0628 13.4118 29.2963 13.1424 28.6772 12.6634L28.5004 12.5137L28.7067 12.4238C30.7998 11.6754 32.657 10.358 34.1015 8.62156C34.7796 7.8132 35.3397 6.91503 35.7819 5.98691C35.2218 5.26837 34.4848 4.63964 33.6299 4.19056ZM32.4212 6.64557C31.1536 8.32217 29.3848 9.57962 27.3801 10.1784L27.2327 10.2083V10.0586C27.2327 9.96883 27.2327 9.84907 27.2327 9.75925C27.2327 7.72339 28.8541 6.07673 30.8588 6.07673C31.3894 6.07673 31.92 6.19649 32.3917 6.436L32.5391 6.49588L32.4212 6.64557Z" fill="#00A6D7"/>
<path d="M57.6572 4.19056C56.8023 3.74147 55.8295 3.50195 54.8566 3.50195C51.4664 3.50195 48.6953 6.31624 48.6953 9.75925C48.6953 9.99877 48.6953 10.2383 48.7248 10.4479C48.8427 11.4059 49.167 12.364 49.6976 13.1723C50.8474 14.9387 52.7635 15.9866 54.8566 15.9866C57.952 15.9866 60.5463 13.6813 60.959 10.5676H58.3942C58.011 12.2143 56.5665 13.4118 54.8861 13.4118C54.0901 13.4118 53.3237 13.1424 52.7046 12.6634L52.5277 12.5137L52.7341 12.4238C54.8271 11.6754 56.6844 10.358 58.1289 8.62156C58.8069 7.8132 59.3671 6.91503 59.8093 5.98691C59.2197 5.26837 58.4827 4.63964 57.6572 4.19056ZM56.4485 6.64557C55.1809 8.32217 53.4121 9.57962 51.4075 10.1784L51.2601 10.2083V10.0586C51.2601 9.96883 51.2601 9.84907 51.2601 9.75925C51.2601 7.72339 52.8815 6.07673 54.8861 6.07673C55.4167 6.07673 55.9474 6.19649 56.4191 6.436L56.5665 6.49588L56.4485 6.64557Z" fill="#00A6D7"/>
<path d="M129.353 4.19251C128.498 3.74342 127.525 3.50391 126.552 3.50391C123.162 3.50391 120.391 6.3182 120.391 9.76121C120.391 10.0007 120.391 10.2402 120.42 10.4498C120.538 11.4079 120.862 12.3659 121.393 13.1743C122.543 14.9407 124.459 15.9886 126.552 15.9886C129.647 15.9886 132.242 13.6832 132.654 10.5696H130.09C129.706 12.2162 128.262 13.4138 126.581 13.4138C125.785 13.4138 125.019 13.1443 124.4 12.6653L124.223 12.5156L124.429 12.4258C126.522 11.6773 128.38 10.36 129.824 8.62352C130.502 7.81516 131.062 6.91698 131.505 5.98886C130.915 5.27032 130.178 4.6416 129.353 4.19251ZM128.144 6.64753C126.876 8.32412 125.107 9.58157 123.103 10.1804L122.955 10.2103V10.0606C122.955 9.97078 122.955 9.85103 122.955 9.76121C122.955 7.72534 124.577 6.07868 126.581 6.07868C127.112 6.07868 127.643 6.19844 128.114 6.43795L128.262 6.49783L128.144 6.64753Z" fill="#2A317D"/>
<path d="M66.1475 6.46725C66.6781 6.13792 67.2972 5.95828 68.0342 5.95828C68.7122 5.95828 69.3018 6.13792 69.7735 6.46725C70.2452 6.82652 70.5989 7.27561 70.8348 7.84445L70.9527 8.14385H73.6648L73.4879 7.54506C73.1342 6.34749 72.4562 5.38944 71.4538 4.64096C70.4515 3.89247 69.2428 3.5332 67.8278 3.5332C66.6486 3.5332 65.5873 3.80266 64.7029 4.3715C63.8185 4.94035 63.1405 5.68883 62.6393 6.64688C62.1677 7.575 61.9023 8.65281 61.9023 9.79051C61.9023 10.9282 62.1382 11.9761 62.6393 12.9341C63.111 13.8922 63.8185 14.6407 64.7029 15.2095C65.5873 15.7784 66.6191 16.0478 67.8278 16.0478C69.2428 16.0478 70.4515 15.6586 71.4538 14.9401C72.4562 14.1916 73.1342 13.2036 73.4879 12.0359L73.6648 11.4372H70.9527L70.8348 11.7366C70.5989 12.3054 70.2746 12.7545 69.7735 13.1138C69.3018 13.473 68.7122 13.6227 68.0342 13.6227C67.2972 13.6227 66.6781 13.4431 66.1475 13.1138C65.6168 12.7545 65.2041 12.3054 64.9093 11.7366C64.6145 11.1378 64.4671 10.509 64.4671 9.82045C64.4671 9.13184 64.6145 8.47318 64.9093 7.90433C65.2041 7.27561 65.6168 6.82652 66.1475 6.46725Z" fill="#2A317D"/>
<path d="M83.2458 4.13162C82.5088 3.74241 81.7129 3.53283 80.8874 3.53283C79.9146 3.53283 79.0892 3.74241 78.4406 4.16155C78.1753 4.34119 77.91 4.55077 77.6741 4.76034V0H75.1094V15.8678H77.6741V8.9219C77.6741 8.32311 77.792 7.81414 78.0574 7.36505C78.3227 6.91597 78.647 6.58663 79.0892 6.31718C79.5314 6.07767 80.003 5.95791 80.5632 5.95791C81.3591 5.95791 81.9782 6.22736 82.4794 6.73633C82.9805 7.27524 83.2163 7.96384 83.2163 8.89195V15.8379H85.7811V8.86202C85.7811 7.72432 85.5453 6.73633 85.1031 5.95791C84.5724 5.14955 83.9828 4.52083 83.2458 4.13162Z" fill="#2A317D"/>
<path d="M96.2453 4.79065C95.9505 4.55114 95.6557 4.31162 95.302 4.13199C94.5945 3.74278 93.7101 3.5332 92.7372 3.5332C91.5875 3.5332 90.5557 3.8326 89.6713 4.3715C88.8164 4.94035 88.1089 5.68883 87.6372 6.64688C87.1655 7.575 86.9297 8.65281 86.9297 9.7905C86.9297 10.9282 87.1655 11.9761 87.6372 12.9042C88.1089 13.8622 88.7869 14.6107 89.6713 15.1796C90.5557 15.7484 91.5875 16.0179 92.7372 16.0179C93.7101 16.0179 94.5945 15.8083 95.302 15.4191C95.6557 15.2394 95.9505 14.9999 96.2453 14.7604V15.8382H98.8101V3.71284H96.2453V4.79065ZM95.921 7.84445C96.1864 8.4133 96.3338 9.07196 96.3338 9.7905C96.3338 10.4791 96.1864 11.1378 95.921 11.7366C95.6557 12.3054 95.2725 12.7545 94.7713 13.1138C94.2702 13.4431 93.6511 13.6227 92.9436 13.6227C92.2361 13.6227 91.5875 13.4431 91.0864 13.1138C90.5557 12.7545 90.1725 12.3054 89.9072 11.7366C89.6418 11.1378 89.4944 10.509 89.4944 9.82044C89.4944 9.1019 89.6418 8.47318 89.9072 7.87439C90.1725 7.30555 90.5852 6.85646 91.0864 6.49719C91.5875 6.16786 92.2361 5.98822 92.9436 5.98822C93.6806 5.98822 94.2997 6.16786 94.7713 6.49719C95.2725 6.82652 95.6557 7.24567 95.921 7.84445Z" fill="#2A317D"/>
<path d="M107.067 3.5332H106.507C105.77 3.5332 105.122 3.65296 104.562 3.92241C104.031 4.16193 103.559 4.49126 103.205 4.85053C103.088 4.97029 102.999 5.09004 102.881 5.2098V3.71284H100.316V15.8682H102.881V10.4791C102.881 9.73063 103.029 9.01208 103.323 8.35342C103.618 7.69476 104.031 7.15585 104.562 6.76664C105.092 6.37743 105.682 6.16786 106.419 6.16786H107.067V3.5332Z" fill="#2A317D"/>
<path d="M116.734 3.71284V4.76071C116.439 4.5212 116.144 4.28168 115.79 4.10205C115.083 3.71284 114.198 3.5332 113.226 3.5332C112.076 3.5332 111.044 3.80266 110.16 4.34156C109.275 4.88047 108.597 5.62895 108.125 6.55707C107.654 7.48518 107.418 8.53306 107.418 9.67075C107.418 10.8084 107.654 11.8563 108.125 12.7844C108.597 13.7125 109.275 14.461 110.16 15.0299C111.044 15.5688 112.046 15.8382 113.226 15.8382C114.198 15.8382 115.083 15.6287 115.79 15.2394C116.144 15.0598 116.439 14.8203 116.734 14.5808V14.9401C116.734 15.958 116.232 17.5747 113.52 17.5747C112.754 17.5747 112.135 17.425 111.663 17.1556C111.309 16.946 111.044 16.7065 110.867 16.4071H108.037C108.391 17.4849 109.039 18.3531 109.983 19.0118C110.926 19.6705 112.135 19.9998 113.609 19.9998C115.378 19.9998 116.793 19.5208 117.765 18.5926C117.765 18.5926 119.269 17.3053 119.269 15.0299V3.71284H116.734ZM116.409 11.5869C116.144 12.1557 115.761 12.5749 115.26 12.9042C114.758 13.2335 114.169 13.3832 113.432 13.3832C112.695 13.3832 112.076 13.2036 111.575 12.9042C111.044 12.5749 110.661 12.1258 110.395 11.5869C110.13 11.018 109.983 10.3893 109.983 9.70069C109.983 9.01208 110.13 8.35342 110.395 7.78457C110.661 7.21573 111.044 6.79658 111.575 6.46725C112.076 6.13792 112.724 5.98822 113.432 5.98822C114.139 5.98822 114.758 6.13792 115.26 6.46725C115.761 6.79658 116.144 7.24567 116.409 7.78457C116.675 8.35342 116.822 8.98214 116.822 9.70069C116.822 10.3594 116.704 11.018 116.409 11.5869Z" fill="#2A317D"/>
<defs>
<linearGradient id="paint0_linear" x1="9.39165" y1="16.2792" x2="9.39165" y2="3.98617" gradientUnits="userSpaceOnUse">
<stop stop-color="#0598CF"/>
<stop offset="1" stop-color="#2A327D"/>
</linearGradient>
<linearGradient id="paint1_linear" x1="14.8924" y1="16.2921" x2="10.6329" y2="18.2429" gradientUnits="userSpaceOnUse">
<stop stop-color="#2AACD7"/>
<stop offset="1" stop-color="#029DD1"/>
</linearGradient>
<linearGradient id="paint2_linear" x1="17.8535" y1="10.6772" x2="16.1325" y2="15.2876" gradientUnits="userSpaceOnUse">
<stop stop-color="#4CB9D7"/>
<stop offset="1" stop-color="#30AED7"/>
</linearGradient>
<linearGradient id="paint3_linear" x1="16.1071" y1="4.59728" x2="17.9036" y2="9.20635" gradientUnits="userSpaceOnUse">
<stop stop-color="#63C8D8"/>
<stop offset="1" stop-color="#50BBD7"/>
</linearGradient>
</defs>
</svg>
